HIERARCHY
ROOT Zhanghao:Solving:Hips
{
	OFFSET 0.000000 0.000000 0.000000
	CHANNELS 6 Xposition Yposition Zposition Xrotation Yrotation Zrotation
	JOINT Zhanghao:Solving:Spine
	{
		OFFSET 0.000000 -9.563771 2.098718
		CHANNELS 6 Xposition Yposition Zposition Xrotation Yrotation Zrotation
		JOINT Zhanghao:Solving:Spine1
		{
			OFFSET 0.000000 -9.562875 1.686196
			CHANNELS 6 Xposition Yposition Zposition Xrotation Yrotation Zrotation
			JOINT Zhanghao:Solving:Spine2
			{
				OFFSET 0.000000 -9.673449 0.846319
				CHANNELS 6 Xposition Yposition Zposition Xrotation Yrotation Zrotation
				JOINT Zhanghao:Solving:Spine3
				{
					OFFSET 0.000000 -9.710396 0.000000
					CHANNELS 6 Xposition Yposition Zposition Xrotation Yrotation Zrotation
					JOINT Zhanghao:Solving:Neck
					{
						OFFSET 0.000000 -12.484798 -1.248478
						CHANNELS 6 Xposition Yposition Zposition Xrotation Yrotation Zrotation
						JOINT Zhanghao:Solving:Neck1
						{
							OFFSET 0.000000 -5.748112 -0.502893
							CHANNELS 6 Xposition Yposition Zposition Xrotation Yrotation Zrotation
							JOINT Zhanghao:Solving:Head
							{
								OFFSET 0.000000 -5.682407 -1.001961
								CHANNELS 6 Xposition Yposition Zposition Xrotation Yrotation Zrotation
								JOINT Zhanghao:Solving:HeadEnd
								{
									OFFSET 0.000000 -9.728077 0.000002
									CHANNELS 6 Xposition Yposition Zposition Xrotation Yrotation Zrotation
									End Site
									{
										OFFSET 0.000000 -9.728081 0.000002
									}
								}
							}
						}
					}
					JOINT Zhanghao:Solving:RightShoulder
					{
						OFFSET 0.000000 -8.917713 -5.270916
						CHANNELS 6 Xposition Yposition Zposition Xrotation Yrotation Zrotation
						JOINT Zhanghao:Solving:RightArm
						{
							OFFSET -18.341640 -0.000008 0.000000
							CHANNELS 6 Xposition Yposition Zposition Xrotation Yrotation Zrotation
							JOINT Zhanghao:Solving:RightForeArm
							{
								OFFSET -27.519978 -0.000008 0.000000
								CHANNELS 6 Xposition Yposition Zposition Xrotation Yrotation Zrotation
								JOINT Zhanghao:Solving:RightHand
								{
									OFFSET -22.582626 -0.000008 0.000000
									CHANNELS 6 Xposition Yposition Zposition Xrotation Yrotation Zrotation
									JOINT Zhanghao:Solving:RightHandThumb1
									{
										OFFSET -4.292824 2.781349 -3.192099
										CHANNELS 6 Xposition Yposition Zposition Xrotation Yrotation Zrotation
										End Site
										{
											OFFSET -6.150612 -0.000004 -6.207481
										}
									}
									JOINT Zhanghao:Solving:RightHandMiddle1
									{
										OFFSET -11.447525 -0.000004 0.073382
										CHANNELS 6 Xposition Yposition Zposition Xrotation Yrotation Zrotation
										End Site
										{
											OFFSET -8.738586 -0.000004 0.000000
										}
									}
								}
							}
						}
					}
					JOINT Zhanghao:Solving:LeftShoulder
					{
						OFFSET 0.000000 -8.917713 -5.270916
						CHANNELS 6 Xposition Yposition Zposition Xrotation Yrotation Zrotation
						JOINT Zhanghao:Solving:LeftArm
						{
							OFFSET 18.341640 -0.000008 0.000000
							CHANNELS 6 Xposition Yposition Zposition Xrotation Yrotation Zrotation
							JOINT Zhanghao:Solving:LeftForeArm
							{
								OFFSET 27.519978 -0.000008 0.000000
								CHANNELS 6 Xposition Yposition Zposition Xrotation Yrotation Zrotation
								JOINT Zhanghao:Solving:LeftHand
								{
									OFFSET 22.582626 -0.000008 0.000000
									CHANNELS 6 Xposition Yposition Zposition Xrotation Yrotation Zrotation
									JOINT Zhanghao:Solving:LeftHandThumb1
									{
										OFFSET 4.292824 2.781349 -3.192099
										CHANNELS 6 Xposition Yposition Zposition Xrotation Yrotation Zrotation
										End Site
										{
											OFFSET 6.150612 -0.000004 -6.207481
										}
									}
									JOINT Zhanghao:Solving:LeftHandMiddle1
									{
										OFFSET 11.447525 -0.000004 0.073382
										CHANNELS 6 Xposition Yposition Zposition Xrotation Yrotation Zrotation
										End Site
										{
											OFFSET 8.738586 -0.000004 0.000000
										}
									}
								}
							}
						}
					}
				}
			}
		}
	}
	JOINT Zhanghao:Solving:RightUpLeg
	{
		OFFSET -9.107882 0.000000 0.000000
		CHANNELS 6 Xposition Yposition Zposition Xrotation Yrotation Zrotation
		JOINT Zhanghao:Solving:RightLeg
		{
			OFFSET 0.000000 38.746075 -0.000006
			CHANNELS 6 Xposition Yposition Zposition Xrotation Yrotation Zrotation
			JOINT Zhanghao:Solving:RightFoot
			{
				OFFSET 0.000000 37.141575 -0.000006
				CHANNELS 6 Xposition Yposition Zposition Xrotation Yrotation Zrotation
				JOINT Zhanghao:Solving:RightForeFoot
				{
					OFFSET 0.000000 3.208229 -0.000000
					CHANNELS 6 Xposition Yposition Zposition Xrotation Yrotation Zrotation
					JOINT Zhanghao:Solving:RightToeBase
					{
						OFFSET 0.000000 0.000000 -12.564445
						CHANNELS 6 Xposition Yposition Zposition Xrotation Yrotation Zrotation
						JOINT Zhanghao:Solving:RightToeBaseEnd
						{
							OFFSET 0.000000 0.000000 -4.358174
							CHANNELS 6 Xposition Yposition Zposition Xrotation Yrotation Zrotation
							End Site
							{
								OFFSET 0.000000 -4.358177 0.000000
							}
						}
					}
				}
			}
		}
	}
	JOINT Zhanghao:Solving:LeftUpLeg
	{
		OFFSET 9.107882 0.000000 0.000000
		CHANNELS 6 Xposition Yposition Zposition Xrotation Yrotation Zrotation
		JOINT Zhanghao:Solving:LeftLeg
		{
			OFFSET 0.000000 38.746075 -0.000006
			CHANNELS 6 Xposition Yposition Zposition Xrotation Yrotation Zrotation
			JOINT Zhanghao:Solving:LeftFoot
			{
				OFFSET 0.000000 37.141575 -0.000006
				CHANNELS 6 Xposition Yposition Zposition Xrotation Yrotation Zrotation
				JOINT Zhanghao:Solving:LeftForeFoot
				{
					OFFSET 0.000000 3.208229 -0.000000
					CHANNELS 6 Xposition Yposition Zposition Xrotation Yrotation Zrotation
					JOINT Zhanghao:Solving:LeftToeBase
					{
						OFFSET 0.000000 0.000000 -12.564445
						CHANNELS 6 Xposition Yposition Zposition Xrotation Yrotation Zrotation
						JOINT Zhanghao:Solving:LeftToeBaseEnd
						{
							OFFSET 0.000000 0.000000 -4.448388
							CHANNELS 6 Xposition Yposition Zposition Xrotation Yrotation Zrotation
							End Site
							{
								OFFSET 0.000000 -4.448387 0.000000
							}
						}
					}
				}
			}
		}
	}
}
MOTION
Frames: 4
Frame Time: 0.041667
-23.217133 -194.883057 -67.830872 110.674937 -3.004674 -4.160153 0.000000 -9.563778 2.098704 15.893191 -0.473584 -0.443099 0.000001 -9.562877 1.686199 22.405327 1.027226 1.701245 -0.000001 -9.673450 0.846351 6.694963 -0.160126 -6.785132 -0.000003 -9.710403 -0.000012 -11.966617 0.093251 0.773301 -0.000001 -12.484771 -1.248461 -20.618413 -0.350670 1.886658 -0.000003 -5.748098 -0.502915 2.578190 3.949804 3.941888 -0.000004 -5.682391 -1.001992 0.082376 0.234430 0.735918 -0.000005 -9.728069 -0.000025 -0.000000 0.000000 -0.000000 0.000001 -8.917698 -5.270906 0.000002 6.325305 12.048274 -18.341629 -0.000015 0.000011 -70.372962 -42.140327 -93.457854 -27.519960 -0.000029 -0.000038 -44.871392 -5.572482 -5.521590 -22.582623 -0.000000 -0.000012 1.109269 -5.254218 11.938985 -4.292828 2.781339 -3.192089 0.000001 0.000009 -0.000004 -11.447534 -0.000013 0.073407 0.000002 0.000006 -0.000001 0.000002 -8.917698 -5.270906 0.000009 -0.883743 -8.370446 18.341616 0.000030 -0.000039 -61.467290 28.346024 86.657690 27.519985 -0.000008 -0.000023 -42.202492 5.570047 5.030100 22.582615 0.000002 -0.000026 0.212343 4.989279 -2.440119 4.292822 2.781336 -3.192096 -0.000000 -0.000005 -0.000002 11.447519 -0.000018 0.073398 0.000002 0.000001 0.000003 -9.107885 -0.000008 -0.000009 -76.287660 16.441121 33.529788 0.000022 38.746124 0.000009 52.502404 -0.000000 0.000003 0.000008 37.141571 -0.000049 -6.032561 25.842603 -19.445323 0.000004 3.208222 0.000002 -0.000001 0.000002 -0.000001 0.000005 -0.000002 -12.564447 21.859018 0.000001 0.000003 -0.000018 -0.000015 -4.358139 0.000001 -0.000002 0.000000 9.107882 -0.000010 -0.000015 -64.399224 -13.184359 -25.305863 -0.000027 38.746113 -0.000002 44.907480 -0.000001 0.000003 -0.000012 37.141582 -0.000076 3.360482 -23.125252 22.064177 -0.000016 3.208229 0.000022 -0.000000 -0.000000 0.000000 -0.000011 -0.000000 -12.564467 21.531090 -0.000004 -0.000003 -0.000029 -0.000014 -4.448400 0.000003 0.000004 0.000000 
-23.476374 -194.826385 -68.133041 110.533341 -3.083368 -4.213204 0.000004 -9.563776 2.098718 15.960264 -0.413331 -0.531591 -0.000001 -9.562876 1.686213 22.134054 1.028201 1.714165 0.000004 -9.673438 0.846314 6.750866 -0.233756 -6.634941 0.000003 -9.710421 -0.000002 -11.911607 0.084274 0.786501 -0.000005 -12.484843 -1.248492 -20.716435 -0.438884 2.035807 -0.000002 -5.748135 -0.502936 2.806304 4.030498 3.873377 0.000001 -5.682398 -1.001970 0.137400 0.240130 0.725700 -0.000003 -9.728046 0.000040 -0.000002 0.000000 -0.000000 -0.000005 -8.917759 -5.270916 0.000000 6.178403 12.021074 -18.341625 0.000012 -0.000002 -69.947598 -42.077705 -93.463154 -27.519947 -0.000013 -0.000007 -44.878472 -5.454108 -5.406686 -22.582611 -0.000002 0.000017 1.099822 -5.195159 11.970528 -4.292844 2.781350 -3.192121 0.000003 -0.000002 -0.000007 -11.447543 -0.000002 0.073361 0.000001 -0.000005 -0.000003 -0.000005 -8.917763 -5.270916 0.000002 -0.880116 -8.345847 18.341623 0.000015 -0.000026 -61.171939 28.424882 86.691787 27.519979 -0.000000 -0.000017 -42.765925 5.639338 5.193141 22.582621 0.000002 -0.000016 0.212304 5.069681 -2.401087 4.292831 2.781347 -3.192084 0.000003 -0.000005 -0.000000 11.447548 -0.000016 0.073352 0.000001 -0.000001 0.000001 -9.107889 -0.000013 -0.000010 -75.727509 16.686116 33.312858 0.000047 38.746109 0.000010 51.957399 0.000013 0.000004 0.000051 37.141594 0.000017 -6.047160 25.948874 -19.188375 0.000016 3.208230 0.000010 -0.000002 -0.000004 -0.000004 -0.000013 -0.000004 -12.564446 22.017550 -0.000001 0.000004 0.000052 -0.000016 -4.358164 -0.000004 -0.000000 0.000000 9.107886 -0.000002 0.000001 -63.893264 -13.207336 -25.076985 0.000008 38.746086 0.000023 44.089144 0.000003 0.000002 -0.000003 37.141586 -0.000013 4.691665 -23.590550 21.817994 0.000035 3.208221 -0.000030 -0.000000 0.000000 -0.000002 0.000001 -0.000003 -12.564480 21.026251 -0.000008 0.000002 -0.000055 -0.000008 -4.448380 -0.000001 0.000003 0.000001 
-23.795633 -194.767227 -68.433807 110.331263 -3.022770 -4.196548 0.000002 -9.563738 2.098742 16.050250 -0.531416 -0.530525 -0.000006 -9.562890 1.686150 21.993038 0.984479 1.657601 -0.000001 -9.673442 0.846321 6.815488 -0.254655 -6.470668 -0.000004 -9.710389 0.000020 -11.911473 0.092474 0.724802 -0.000000 -12.484816 -1.248476 -20.887717 -0.522073 2.144422 0.000001 -5.748107 -0.502872 3.082750 4.088873 3.852634 -0.000000 -5.682392 -1.001925 0.211598 0.243968 0.724921 -0.000003 -9.728077 -0.000009 -0.000005 0.000000 -0.000000 -0.000003 -8.917702 -5.270910 0.000002 6.092910 11.861241 -18.341635 -0.000020 -0.000009 -69.767739 -42.312800 -93.575286 -27.519928 -0.000006 -0.000027 -45.039026 -5.225005 -5.210435 -22.582628 -0.000004 -0.000002 1.093563 -5.175350 11.948466 -4.292805 2.781361 -3.192081 -0.000004 0.000005 -0.000004 -11.447516 -0.000008 0.073396 -0.000002 0.000000 0.000002 0.000002 -8.917702 -5.270910 -0.000004 -0.904551 -8.314055 18.341635 0.000017 -0.000023 -61.105898 27.643237 86.806848 27.519979 -0.000020 -0.000001 -42.461398 5.568875 5.074663 22.582613 0.000000 0.000030 0.195616 5.183675 -2.164030 4.292794 2.781354 -3.192072 0.000006 -0.000009 0.000001 11.447496 -0.000011 0.073408 0.000003 -0.000003 0.000002 -9.107876 0.000024 0.000014 -74.977684 16.944740 32.843426 0.000022 38.746078 0.000012 51.364829 0.000004 0.000003 -0.000001 37.141582 -0.000000 -6.097321 26.154715 -18.952877 0.000029 3.208221 -0.000007 0.000001 -0.000001 0.000001 0.000007 -0.000001 -12.564446 22.181726 0.000001 0.000004 0.000021 -0.000000 -4.358163 -0.000001 -0.000000 -0.000001 9.107885 0.000003 -0.000010 -63.501853 -13.271013 -25.100206 -0.000016 38.746082 0.000032 43.408151 0.000001 0.000001 0.000005 37.141594 -0.000046 6.134640 -23.913744 21.323668 0.000021 3.208214 0.000014 0.000000 0.000002 -0.000002 0.000009 -0.000012 -12.564454 20.258512 -0.000001 0.000001 -0.000021 -0.000016 -4.448396 -0.000002 0.000003 0.000000 
-24.097677 -194.741440 -68.738892 110.169981 -3.044149 -4.220003 0.000003 -9.563778 2.098763 16.195007 -0.608419 -0.556944 -0.000001 -9.562888 1.686221 21.852101 0.963357 1.653457 -0.000001 -9.673455 0.846295 6.814763 -0.233612 -6.305850 0.000003 -9.710379 -0.000004 -11.930379 0.112433 0.663115 0.000004 -12.484818 -1.248493 -20.984397 -0.595310 2.268310 0.000004 -5.748141 -0.502863 3.283778 4.164066 3.756834 -0.000003 -5.682428 -1.001954 0.261814 0.249398 0.709916 -0.000004 -9.728062 0.000020 0.000004 -0.000000 0.000000 0.000001 -8.917751 -5.270901 -0.000004 5.994354 11.719195 -18.341637 -0.000018 0.000025 -69.533361 -42.431683 -93.655506 -27.519949 -0.000036 -0.000018 -45.117576 -5.044048 -5.045141 -22.582605 0.000009 0.000001 1.088894 -5.166624 11.918403 -4.292817 2.781346 -3.192113 0.000003 0.000003 -0.000000 -11.447534 -0.000012 0.073372 0.000001 -0.000000 -0.000001 0.000003 -8.917751 -5.270916 0.000002 -0.966002 -8.318598 18.341625 0.000016 -0.000017 -61.008233 27.165023 86.910858 27.519985 -0.000012 -0.000023 -42.222457 5.594770 5.055759 22.582613 0.000001 0.000021 0.191554 5.240699 -2.096181 4.292808 2.781343 -3.192089 0.000003 -0.000015 -0.000003 11.447509 -0.000018 0.073406 0.000000 -0.000006 -0.000001 -9.107878 0.000010 0.000039 -74.260146 17.165362 32.445092 0.000011 38.746101 0.000006 50.694132 0.000001 0.000002 0.000019 37.141579 0.000009 -6.165941 26.413284 -18.836291 0.000019 3.208214 -0.000011 0.000002 -0.000007 0.000001 0.000040 0.000006 -12.564445 22.518133 -0.000002 0.000001 0.000021 -0.000013 -4.358153 0.000003 -0.000001 -0.000003 9.107882 0.000007 0.000061 -63.235210 -13.251329 -24.997271 0.000002 38.746075 0.000002 42.859809 0.000002 0.000004 0.000006 37.141575 0.000006 7.808132 -24.188729 20.646765 0.000020 3.208221 -0.000001 -0.000000 -0.000003 -0.000000 -0.000012 -0.000012 -12.564429 19.235530 0.000000 -0.000000 0.000007 -0.000008 -4.448358 -0.000000 -0.000002 0.000001 
